<svg width="200" height="200" viewBox="0 0 200 200" xmlns="http://www.w3.org/2000/svg">
  <!-- Corps du crocodile -->
  <ellipse cx="100" cy="120" rx="60" ry="40" fill="#90EE90" stroke="#228B22" stroke-width="3"/>
  
  <!-- Ventre -->
  <ellipse cx="100" cy="125" rx="45" ry="30" fill="#98FB98" stroke="#228B22" stroke-width="2"/>
  <line x1="70" y1="115" x2="130" y2="115" stroke="#228B22" stroke-width="2"/>
  <line x1="70" y1="125" x2="130" y2="125" stroke="#228B22" stroke-width="2"/>
  
  <!-- Tête -->
  <ellipse cx="100" cy="80" rx="50" ry="35" fill="#90EE90" stroke="#228B22" stroke-width="3"/>
  
  <!-- Museau -->
  <ellipse cx="100" cy="95" rx="35" ry="20" fill="#90EE90" stroke="#228B22" stroke-width="3"/>
  
  <!-- Yeux -->
  <circle cx="85" cy="75" r="12" fill="#FFFFFF" stroke="#228B22" stroke-width="2"/>
  <circle cx="115" cy="75" r="12" fill="#FFFFFF" stroke="#228B22" stroke-width="2"/>
  <circle cx="85" cy="75" r="6" fill="#000000"/>
  <circle cx="115" cy="75" r="6" fill="#000000"/>
  
  <!-- Lunettes -->
  <circle cx="85" cy="75" r="15" fill="none" stroke="#000000" stroke-width="3"/>
  <circle cx="115" cy="75" r="15" fill="none" stroke="#000000" stroke-width="3"/>
  <line x1="100" y1="75" x2="100" y2="75" stroke="#000000" stroke-width="3"/>
  
  <!-- Bouche souriante -->
  <path d="M 75 90 Q 100 105 125 90" fill="none" stroke="#228B22" stroke-width="2" stroke-linecap="round"/>
  
  <!-- Dents -->
  <polygon points="80,90 82,85 84,90" fill="#FFFFFF" stroke="#228B22" stroke-width="0.5"/>
  <polygon points="84,90 86,85 88,90" fill="#FFFFFF" stroke="#228B22" stroke-width="0.5"/>
  <polygon points="88,90 90,85 92,90" fill="#FFFFFF" stroke="#228B22" stroke-width="0.5"/>
  <polygon points="92,90 94,85 96,90" fill="#FFFFFF" stroke="#228B22" stroke-width="0.5"/>
  <polygon points="96,90 98,85 100,90" fill="#FFFFFF" stroke="#228B22" stroke-width="0.5"/>
  <polygon points="100,90 102,85 104,90" fill="#FFFFFF" stroke="#228B22" stroke-width="0.5"/>
  <polygon points="104,90 106,85 108,90" fill="#FFFFFF" stroke="#228B22" stroke-width="0.5"/>
  <polygon points="108,90 110,85 112,90" fill="#FFFFFF" stroke="#228B22" stroke-width="0.5"/>
  <polygon points="112,90 114,85 116,90" fill="#FFFFFF" stroke="#228B22" stroke-width="0.5"/>
  <polygon points="116,90 118,85 120,90" fill="#FFFFFF" stroke="#228B22" stroke-width="0.5"/>
  
  <!-- Écailles sur le dos -->
  <polygon points="70,60 75,50 80,60" fill="#228B22"/>
  <polygon points="80,60 85,50 90,60" fill="#228B22"/>
  <polygon points="90,60 95,50 100,60" fill="#228B22"/>
  <polygon points="100,60 105,50 110,60" fill="#228B22"/>
  <polygon points="110,60 115,50 120,60" fill="#228B22"/>
  <polygon points="120,60 125,50 130,60" fill="#228B22"/>
  
  <!-- Bras -->
  <ellipse cx="60" cy="110" rx="15" ry="8" fill="#90EE90" stroke="#228B22" stroke-width="2"/>
  
  <!-- Main qui fait coucou -->
  <ellipse cx="45" cy="110" rx="8" ry="12" fill="#90EE90" stroke="#228B22" stroke-width="2"/>
  <circle cx="45" cy="100" r="3" fill="#90EE90" stroke="#228B22" stroke-width="1"/>
  <circle cx="45" cy="105" r="3" fill="#90EE90" stroke="#228B22" stroke-width="1"/>
  <circle cx="45" cy="115" r="3" fill="#90EE90" stroke="#228B22" stroke-width="1"/>
</svg> 